<?xml version="1.0" encoding="UTF-8" standalone="no"?>
<svg xmlns:svg="http://www.w3.org/2000/svg" xmlns="http://www.w3.org/2000/svg" version="1.0" width="1121.675" height="829" xml:space="preserve">
<style type="text/css"><![CDATA[
   text {font-family: Helvetica, Arial, sans-serif; font-size: 100px} .small {font-size: 75px}
]]></style>
<g transform="translate(50,50)">
<polygon points="381.5,434 377.5,436.5 373.5,434 373.5,295 377.5,292.5 381.5,295 381.5,434" />
<polygon points="257,510.5 253,508 253,503.5 373.5,434 377.5,436.5 377.5,441 257,510.5" />
<polygon points="466.5,483 462.5,490 377.5,441 377.5,436.5 381.5,434 466.5,483" />
<polygon points="626,432 626,441 542,489.5 538,482.5 626,432" />
<polygon points="750.5,503.5 750.5,513 626,441 626,432 750.5,503.5" />
<polygon points="827,459.5 831,466 750.5,513 750.5,503.5 827,459.5" />
<polygon points="498,218 506,223 381.5,295 377.5,292.5 377.5,288 498,218" />
<polygon points="498,79 506,74 506,223 498,218 498,79" />
<polygon points="377.5,9 377.5,0 506,74 498,79 377.5,9" />
<polygon points="257,79 249,74 377.5,0 377.5,9 257,79" />
<polygon points="257,218 249,223 249,74 257,79 257,218" />
<polygon points="377.5,288 377.5,292.5 373.5,295 249,223 257,218 377.5,288" />
<polygon points="128.5,441 128.5,431.5 253,503.5 253,508 249,510.5 128.5,441" />
<polygon points="8,510.5 0,506 128.5,431.5 128.5,441 8,510.5" />
<polygon points="31.5,526.5 28,520 126.5,462.5 130.5,469.5 31.5,526.5" />
<polygon points="8,650 0,654.5 0,506 8,510.5 8,650" />
<polygon points="128.5,719.5 128.5,729 0,654.5 8,650 128.5,719.5" />
<polygon points="130.5,691 126.5,698 28,640.5 31.5,634 130.5,691" />
<polygon points="249,650 257,654.5 128.5,729 128.5,719.5 249,650" />
<polygon points="249,510.5 253,508 257,510.5 257,654.5 249,650 249,510.5" />
<rect width="8" height="105.5" x="759.5" y="501" />
<rect width="8" height="105.5" x="733.5" y="501" />
<rect width="8" height="47" x="510.5" y="559.5" />
<rect width="8" height="47" x="485" y="559.5" />
<rect width="8" height="114" x="472.5" y="91.5" />
<rect width="8" height="114.2" x="324" y="5.9" transform="matrix(0.4959,0.8684,-0.8684,0.4959,220.0389,-253.0671)" />
<rect width="8" height="114.2" x="324" y="176.9" transform="matrix(0.4959,-0.8684,0.8684,0.4959,-37.8621,402.7717)" />
<rect width="8" height="114.5" x="223.5" y="523" />
<text x="469.9995" y="547.002">S</text>
<text x="839.502" y="475.501">NH</text>
<text x="983.9189" y="494.248" class="small">2</text>
<text x="711.5" y="690.501">O</text>
<text x="462.4995" y="690.501">O</text>
</g>
</svg>
